<svg width="124" height="124" viewBox="0 0 124 124" fill="none" xmlns="http://www.w3.org/2000/svg">
<g filter="url(#filter0_d_63_5587)">
<ellipse cx="58" cy="54.1616" rx="38" ry="37.5" fill="url(#paint0_linear_63_5587)"/>
</g>
<g filter="url(#filter1_d_63_5587)">
<circle cx="58.0001" cy="53.9999" r="32.6598" transform="rotate(105 58.0001 53.9999)" fill="url(#paint1_linear_63_5587)"/>
<circle cx="58.0001" cy="53.9999" r="32.1598" transform="rotate(105 58.0001 53.9999)" stroke="url(#paint2_linear_63_5587)"/>
</g>
<path d="M64.8066 56.011H67.4865C67.9878 56.011 68.4134 55.5869 68.4134 55.0841V52.4042C68.4134 51.9192 67.9878 51.455 67.4865 51.4773C66.9838 51.4995 66.5596 51.8851 66.5596 52.4042V55.0841L67.4865 54.1572H64.8066C64.3216 54.1572 63.8574 54.5828 63.8797 55.0841C63.9019 55.5869 64.286 56.011 64.8066 56.011Z" fill="white"/>
<path d="M70.1664 54.1575H67.4865C66.9852 54.1575 66.5596 54.5817 66.5596 55.0845V57.7644C66.5596 58.2493 66.9852 58.7136 67.4865 58.6913C67.9892 58.6691 68.4134 58.2835 68.4134 57.7644V55.0845L67.4865 56.0114H70.1664C70.6514 56.0114 71.1156 55.5857 71.0933 55.0845C71.0711 54.5832 70.6855 54.1575 70.1664 54.1575Z" fill="white"/>
<path d="M72.1582 53.9912C72.1567 54.4287 72.1389 54.8677 72.1019 55.3037C72.0856 55.4995 72.0633 55.6953 72.0396 55.8896C72.0203 56.0512 72.0455 55.8347 72.05 55.8184C72.0366 55.8747 72.0336 55.9355 72.0247 55.9919C72.0069 56.1076 71.9892 56.2233 71.9684 56.3375C71.8305 57.1324 71.6288 57.917 71.3648 58.6793C71.2995 58.8676 71.2313 59.0545 71.1572 59.2399C71.123 59.3274 71.086 59.4149 71.0504 59.5039C71.0014 59.6255 71.1453 59.2844 71.0667 59.4653C71.04 59.5261 71.0148 59.5869 70.9866 59.6477C70.822 60.017 70.6425 60.3804 70.4482 60.7363C70.07 61.4274 69.634 62.0785 69.1624 62.7088C69.3344 62.4789 69.1446 62.7296 69.1001 62.7844C69.0423 62.8571 68.983 62.9298 68.9221 63.001C68.7902 63.1582 68.6567 63.3124 68.5188 63.4652C68.2429 63.7692 67.9552 64.0614 67.6571 64.3417C67.3679 64.6116 67.0698 64.8711 66.7613 65.1188C66.7227 65.15 66.6842 65.1796 66.6456 65.2108C66.5418 65.2938 66.831 65.0714 66.6694 65.193C66.5907 65.2523 66.5121 65.3116 66.4335 65.3695C66.2585 65.497 66.0806 65.6216 65.9011 65.7417C65.2011 66.2089 64.4625 66.6182 63.6943 66.9623C63.6483 66.983 63.6038 67.0023 63.5579 67.0231C63.5401 67.0305 63.5208 67.0394 63.503 67.0468C63.411 67.0869 63.4303 67.078 63.5594 67.0231C63.5327 67.0053 63.3161 67.1225 63.282 67.1358C63.0774 67.2159 62.8697 67.293 62.6621 67.3642C62.2617 67.5021 61.8553 67.6223 61.4445 67.7261C61.0292 67.8299 60.6095 67.9174 60.1868 67.9856C60.086 68.0019 59.9837 68.0168 59.8813 68.0316C59.6633 68.0642 60.1008 68.0064 59.8828 68.0316C59.8309 68.0375 59.7805 68.0434 59.7286 68.0494C59.5017 68.0746 59.2733 68.0954 59.0449 68.1117C58.155 68.1725 57.2607 68.1547 56.3738 68.0598C56.3501 68.0568 56.0728 68.0108 56.0653 68.0227C56.1069 68.0286 56.1484 68.0345 56.1884 68.039C56.1469 68.0331 56.1069 68.0271 56.0653 68.0212C56.0253 68.0153 55.9838 68.0093 55.9437 68.0034C55.7213 67.9693 55.4988 67.9293 55.2778 67.8862C54.8596 67.8032 54.4458 67.7009 54.0365 67.5822C53.6123 67.4591 53.1941 67.3167 52.7818 67.1566C52.6884 67.121 52.5964 67.0824 52.503 67.0453C52.3428 66.9801 52.5579 67.0616 52.5593 67.0691C52.5564 67.0527 52.4125 67.0053 52.3947 66.9979C52.1945 66.9089 51.9958 66.8169 51.8 66.7205C51.0555 66.3527 50.3422 65.9226 49.6688 65.4377C49.5887 65.3798 49.5101 65.322 49.4315 65.2627C49.4078 65.2449 49.3188 65.1559 49.2906 65.1559C49.3707 65.1559 49.4375 65.2701 49.3159 65.1737C49.1512 65.0432 48.9881 64.9097 48.8279 64.7718C48.5239 64.5107 48.2302 64.2379 47.9484 63.9531C47.6726 63.6758 47.4086 63.3866 47.155 63.0885C47.0349 62.9461 46.9177 62.8008 46.8006 62.6555C46.6745 62.4968 46.9311 62.8275 46.808 62.6658C46.7857 62.6362 46.7635 62.6065 46.7397 62.5769C46.673 62.4879 46.6063 62.3974 46.541 62.3055C46.0709 61.6514 45.6541 60.9588 45.2952 60.238C45.2107 60.069 45.1306 59.8984 45.0535 59.7278C45.0149 59.6418 44.9764 59.5558 44.9393 59.4683C44.8607 59.2874 45.0046 59.6285 44.9556 59.5069C44.9304 59.4461 44.9052 59.3838 44.8815 59.323C44.7332 58.9522 44.6012 58.5755 44.484 58.1928C44.3653 57.8073 44.2615 57.4172 44.1755 57.0242C44.1295 56.8166 44.088 56.6074 44.0509 56.3983C44.0346 56.3019 44.0183 56.207 44.0035 56.1106C43.9975 56.0721 43.9916 56.0335 43.9857 55.9949C43.9753 55.9223 43.9738 55.6657 43.9783 55.9504C43.9753 55.7577 43.9308 55.5574 43.9145 55.3646C43.8952 55.1481 43.8804 54.9301 43.87 54.7136C43.8522 54.3176 43.8477 53.9201 43.8596 53.5241C43.87 53.1623 43.8952 52.8019 43.9308 52.443C43.9397 52.3584 43.9486 52.2739 43.959 52.1879C43.9649 52.1374 43.9723 52.087 43.9783 52.0366C43.9501 52.3154 43.959 52.1745 43.9694 52.1063C43.9961 51.9224 44.0257 51.7385 44.0583 51.5546C44.1844 50.8561 44.3594 50.1665 44.5819 49.4931C44.6901 49.1639 44.8117 48.8391 44.9423 48.5187C44.966 48.4594 45.0461 48.2933 44.9245 48.5588C44.9378 48.5291 44.9497 48.498 44.963 48.4683C44.9957 48.3927 45.0283 48.3185 45.0624 48.2429C45.1395 48.0708 45.2211 47.9018 45.3056 47.7327C45.6156 47.1128 45.9671 46.5151 46.3586 45.9456C46.4505 45.8121 46.544 45.6801 46.6404 45.5481C46.6878 45.4828 46.7368 45.4176 46.7857 45.3538C46.8243 45.3034 46.9429 45.1655 46.759 45.3879C46.7902 45.3509 46.8183 45.3108 46.8495 45.2737C47.0616 45.0083 47.2811 44.7487 47.5109 44.4966C47.9796 43.982 48.4838 43.5 49.0193 43.055C49.1438 42.9512 49.2729 42.8533 49.3974 42.7495C49.1572 42.9468 49.3826 42.7614 49.4419 42.7169C49.5191 42.659 49.5977 42.6012 49.6777 42.5448C49.9551 42.3461 50.2384 42.1563 50.5275 41.9753C51.1237 41.6046 51.7466 41.2768 52.3888 40.9921C52.457 40.9624 52.7329 40.8542 52.4392 40.9684C52.5163 40.9387 52.5905 40.9061 52.6676 40.8749C52.8367 40.8082 53.0058 40.7429 53.1763 40.6821C53.5041 40.565 53.8363 40.4597 54.1714 40.3647C54.517 40.2669 54.867 40.1823 55.22 40.1111C55.3935 40.0755 55.567 40.0429 55.742 40.0147C55.8251 40.0014 55.9096 39.988 55.9927 39.9747C56.0268 39.9702 56.0594 39.9643 56.0935 39.9599C56.3501 39.9228 55.9319 39.9791 56.0994 39.9584C56.8202 39.8724 57.5425 39.8293 58.2677 39.8412C58.6296 39.8471 58.9929 39.8664 59.3533 39.8991C59.5313 39.9154 59.7107 39.9332 59.8887 39.9554C59.9569 39.9643 60.0978 39.988 59.819 39.945C59.8694 39.9524 59.9199 39.9584 59.9703 39.9658C60.0711 39.9806 60.1705 39.9969 60.2714 40.0132C60.9639 40.1289 61.6491 40.2936 62.318 40.5056C62.6487 40.6109 62.975 40.7266 63.2983 40.8542C63.3754 40.8838 63.4511 40.9165 63.5267 40.9461C63.7002 41.0173 63.3161 40.8542 63.4867 40.9298C63.5237 40.9461 63.5623 40.9624 63.5994 40.9787C63.764 41.0514 63.9286 41.1271 64.0903 41.2057C64.7132 41.5067 65.3168 41.8523 65.8922 42.2364C66.1755 42.4262 66.4484 42.6279 66.7227 42.8311C66.4736 42.6472 66.705 42.8192 66.7643 42.8667C66.828 42.9171 66.8903 42.969 66.9526 43.0194C67.0965 43.1381 67.2374 43.2597 67.3768 43.3828C67.8899 43.8411 68.3734 44.3335 68.8198 44.8555C68.9251 44.9786 69.0289 45.1032 69.1298 45.2292C69.1743 45.2856 69.3493 45.5199 69.1654 45.2708C69.2232 45.3494 69.2826 45.425 69.3404 45.5036C69.5436 45.778 69.7364 46.0583 69.9203 46.346C70.2984 46.9378 70.6351 47.5547 70.9258 48.1925C70.9599 48.2666 70.994 48.3422 71.0266 48.4164C71.0429 48.4535 71.0593 48.492 71.0756 48.5291C71.126 48.6418 70.9807 48.3007 71.0489 48.4668C71.1171 48.6344 71.1838 48.802 71.2476 48.9725C71.3692 49.2988 71.479 49.6281 71.5769 49.9618C71.7815 50.6544 71.9343 51.3603 72.0366 52.0752C72.041 52.1093 72.0455 52.1419 72.0514 52.176C72.0054 51.8764 72.0366 52.0663 72.044 52.1315C72.0544 52.216 72.0648 52.3006 72.0737 52.3851C72.0915 52.5557 72.1063 52.7262 72.1196 52.8968C72.1449 53.2646 72.1567 53.628 72.1582 53.9913C72.1597 54.4763 72.5838 54.9405 73.0851 54.9182C73.5864 54.896 74.0135 54.5104 74.012 53.9913C74.0061 50.9391 73.1311 47.8957 71.4686 45.3314C69.8653 42.8592 67.5846 40.8153 64.9163 39.5533C62.0376 38.1903 58.8533 37.7217 55.7017 38.1577C52.7177 38.57 49.9118 39.878 47.6174 41.8194C45.3498 43.7385 43.6544 46.3147 42.7501 49.1398C41.746 52.2721 41.7505 55.7453 42.7605 58.8749C43.8342 62.2029 45.9847 65.0859 48.8336 67.1061C51.8339 69.2313 55.6039 70.2502 59.2658 69.9477C62.9245 69.6451 66.3906 68.1071 69.0525 65.5754C71.5307 63.2203 73.2406 60.0376 73.7866 56.6593C73.929 55.7768 74.0105 54.887 74.0135 53.9927C74.015 53.5078 73.5864 53.0435 73.0866 53.0658C72.5823 53.0865 72.1582 53.4721 72.1582 53.9912L72.1582 53.9912Z" fill="white"/>
<path d="M62.567 49.2633C62.567 49.3997 62.5626 49.5347 62.5522 49.6711C62.5478 49.7393 62.5418 49.8076 62.5344 49.8743C62.5314 49.9069 62.524 49.9425 62.5225 49.9766C62.5344 49.6948 62.5389 49.8595 62.527 49.9336C62.4825 50.2139 62.4202 50.4928 62.3386 50.7656C62.3001 50.8991 62.2556 51.0311 62.2081 51.1616C62.1844 51.2269 62.1592 51.2921 62.134 51.3574C62.1206 51.393 62.0717 51.5042 62.131 51.3678C62.1963 51.2209 62.131 51.3678 62.1162 51.4004C61.9961 51.6703 61.8581 51.9343 61.7039 52.1864C61.6312 52.3051 61.5556 52.4222 61.477 52.5364C61.4369 52.5928 61.3969 52.6506 61.3569 52.7055C61.3361 52.7337 61.3139 52.7604 61.2946 52.7886C61.3316 52.7337 61.4192 52.6299 61.3272 52.7441C61.1492 52.965 60.9594 53.1742 60.7547 53.3714C60.6569 53.4648 60.556 53.5568 60.4507 53.6443C60.3988 53.6873 60.3439 53.7288 60.2935 53.7718C60.3024 53.7644 60.4818 53.6324 60.3602 53.7184C60.3261 53.7422 60.292 53.7674 60.2579 53.7926C60.0325 53.9513 59.7967 54.0937 59.5505 54.2168C59.4911 54.2464 59.4303 54.2731 59.371 54.3013C59.2375 54.3651 59.4467 54.2701 59.4556 54.2672C59.4244 54.2776 59.3947 54.2924 59.3636 54.3043C59.2257 54.3576 59.0848 54.4051 58.9409 54.4451C58.8134 54.4807 58.6843 54.5104 58.5553 54.5356C58.5405 54.5386 58.3625 54.5771 58.3596 54.5682C58.3581 54.5638 58.6161 54.5415 58.4574 54.5534C58.4159 54.5564 58.3744 54.5608 58.3329 54.5653C58.0526 54.586 57.7812 54.5534 57.5023 54.549C57.7901 54.5534 57.5928 54.5623 57.5023 54.546C57.4371 54.5341 57.3718 54.5223 57.3081 54.5074C57.1627 54.4748 57.0203 54.4362 56.878 54.3888C56.8157 54.368 56.7534 54.3458 56.6911 54.3235C56.614 54.2939 56.4345 54.1901 56.6822 54.3235C56.5591 54.2568 56.4271 54.2049 56.3025 54.1381C56.0578 54.0062 55.8428 53.8341 55.607 53.6903C55.8383 53.8311 55.6589 53.7318 55.5951 53.6784C55.5432 53.6354 55.4913 53.5909 55.4409 53.5464C55.3252 53.4455 55.214 53.3388 55.1072 53.229C55.0167 53.1371 54.9307 53.0421 54.8462 52.9443C54.8017 52.8924 54.7572 52.839 54.7127 52.7856C54.6904 52.7589 54.6697 52.7322 54.6474 52.7055C54.5762 52.618 54.7765 52.8775 54.6815 52.7485C54.5065 52.5097 54.3434 52.265 54.1981 52.007C54.1298 51.8854 54.0646 51.7623 54.0023 51.6377C53.9712 51.5754 53.9415 51.5116 53.9133 51.4493C53.8985 51.4182 53.8851 51.3856 53.8703 51.3544C53.805 51.2061 53.9341 51.5146 53.8926 51.4078C53.7887 51.1408 53.6938 50.8709 53.6197 50.5936C53.5841 50.4601 53.5529 50.3252 53.5262 50.1902C53.5129 50.1235 53.501 50.0552 53.4892 49.987C53.4832 49.9529 53.4788 49.9188 53.4728 49.8847C53.4417 49.6934 53.4981 50.1205 53.4788 49.9277C53.4521 49.6459 53.4343 49.3671 53.4432 49.0838C53.4476 48.9459 53.4565 48.8094 53.4714 48.673C53.4951 48.4491 53.4372 48.8881 53.4714 48.6671C53.4832 48.5929 53.4966 48.5173 53.5114 48.4431C53.5663 48.1658 53.6419 47.8929 53.7398 47.6274C53.762 47.5666 53.7932 47.5058 53.811 47.4435C53.808 47.4524 53.7131 47.6645 53.7754 47.5296C53.7887 47.4999 53.8021 47.4702 53.8154 47.4406C53.8733 47.3145 53.9356 47.1914 54.0038 47.0698C54.0676 46.9556 54.1343 46.8444 54.2055 46.7361C54.2411 46.6812 54.2767 46.6278 54.3152 46.5759C54.3345 46.5492 54.3538 46.524 54.3716 46.4973C54.4576 46.3757 54.3671 46.5062 54.3286 46.5492C54.5051 46.3475 54.6697 46.1429 54.864 45.956C54.9574 45.867 55.0538 45.781 55.1532 45.698C55.1784 45.6772 55.3668 45.5244 55.2303 45.6342C55.1013 45.738 55.297 45.5882 55.3326 45.563C55.5596 45.4043 55.7969 45.2634 56.0445 45.1418C56.1038 45.1121 56.1617 45.0854 56.2225 45.0587C56.2521 45.0454 56.2833 45.0335 56.313 45.0187C56.3055 45.0231 56.089 45.1077 56.2284 45.0558C56.3604 45.0068 56.4909 44.9579 56.6244 44.9164C56.8884 44.8348 57.1568 44.7769 57.4297 44.7325C57.581 44.7072 57.3437 44.7443 57.3348 44.7443C57.3689 44.7428 57.403 44.7369 57.4357 44.7325C57.5039 44.725 57.5721 44.7191 57.6403 44.7147C57.796 44.7043 57.9518 44.7013 58.1075 44.7043C58.2454 44.7072 58.3834 44.7147 58.5198 44.728C58.5999 44.7354 58.8238 44.7814 58.5272 44.725C58.6014 44.7399 58.677 44.7473 58.7526 44.7621C59.0225 44.8111 59.2895 44.8808 59.5491 44.9712C59.6113 44.992 59.6736 45.0157 59.7344 45.0395C59.7641 45.0513 59.7952 45.0661 59.8264 45.075C59.595 45.0024 59.6811 45.0113 59.7404 45.0395C59.8739 45.1003 60.0073 45.1625 60.1364 45.2323C60.3737 45.3598 60.5917 45.5096 60.8126 45.6638C60.9061 45.7291 60.6525 45.5348 60.74 45.6075C60.7652 45.6282 60.7904 45.6475 60.8156 45.6683C60.866 45.7098 60.915 45.7513 60.9639 45.7928C61.0677 45.8833 61.1671 45.9782 61.2635 46.0761C61.354 46.1681 61.4415 46.263 61.5245 46.3624C61.566 46.4113 61.6076 46.4617 61.6476 46.5121C61.6891 46.5626 61.7188 46.6412 61.5912 46.4395C61.612 46.4736 61.6402 46.5047 61.6624 46.5374C61.8182 46.7554 61.9591 46.9838 62.0822 47.2225C62.1415 47.3382 62.1919 47.4598 62.2497 47.577C62.1222 47.313 62.2216 47.5117 62.2483 47.5844C62.2779 47.6615 62.3046 47.7386 62.3298 47.8173C62.4144 48.0798 62.4796 48.3467 62.5241 48.6196C62.53 48.6522 62.5345 48.6863 62.5389 48.7205C62.5567 48.8376 62.5137 48.5069 62.5256 48.6255C62.533 48.6938 62.5404 48.7605 62.5449 48.8287C62.5612 48.9696 62.5656 49.1164 62.5671 49.2633C62.5701 49.7482 62.9913 50.2124 63.494 50.1902C63.9938 50.1679 64.4239 49.7823 64.421 49.2633C64.415 47.9522 64.0161 46.6204 63.2389 45.5585C62.4292 44.4521 61.3436 43.6291 60.0444 43.1812C57.5424 42.318 54.6163 43.1886 52.9924 45.2738C52.1411 46.3668 51.6473 47.666 51.5954 49.0556C51.5449 50.4126 51.9424 51.7904 52.6128 52.9635C53.2712 54.1174 54.2501 55.1526 55.4351 55.771C56.6675 56.4117 58.0898 56.6089 59.4364 56.2307C62.014 55.507 63.9525 52.9502 64.3277 50.3504C64.3796 49.9886 64.4196 49.6297 64.4226 49.2633C64.4241 48.7784 63.994 48.3142 63.4956 48.3364C62.9899 48.3587 62.5687 48.7428 62.5672 49.2633L62.567 49.2633Z" fill="white"/>
<path d="M66.9455 64.9675C66.8847 65.0179 66.8239 65.0668 66.7631 65.1158C66.732 65.141 66.7008 65.1647 66.6712 65.1884C66.5481 65.2863 66.7038 65.1632 66.7186 65.1528C66.5837 65.2522 66.4517 65.3545 66.3152 65.4524C66.0512 65.6423 65.7798 65.8232 65.504 65.9952C64.9493 66.3408 64.3724 66.6508 63.7762 66.9222C63.7035 66.9548 63.6309 66.9874 63.5582 67.02C63.5211 67.0364 63.484 67.0497 63.4484 67.0675C63.4662 67.0586 63.6531 66.983 63.5048 67.0438C63.3476 67.1075 63.1904 67.1713 63.0302 67.2306C62.7202 67.3463 62.4058 67.4516 62.0884 67.5465C61.4448 67.7393 60.7893 67.8876 60.1263 67.993C60.0447 68.0063 59.9632 68.0182 59.8816 68.03C59.7378 68.0508 59.9365 68.0093 59.9439 68.0211C59.9424 68.0182 59.8119 68.0374 59.8208 68.036C59.6458 68.0567 59.4708 68.0745 59.2943 68.0894C58.9502 68.119 58.6047 68.1353 58.2576 68.1413C57.5665 68.1531 56.8739 68.1175 56.1873 68.0345C56.1472 68.03 56.1042 68.0226 56.0642 68.0196C56.0849 68.0211 56.2896 68.0523 56.1265 68.0285C56.0449 68.0167 55.9633 68.0048 55.8817 67.9915C55.7201 67.9663 55.5584 67.9381 55.3968 67.9069C55.0572 67.8417 54.7205 67.7646 54.3853 67.6771C53.7431 67.508 53.1158 67.2929 52.5018 67.0423C52.4529 67.0215 52.3461 66.9681 52.5582 67.066C52.5226 67.0497 52.4855 67.0349 52.4484 67.0186C52.3565 66.9785 52.266 66.9385 52.1755 66.8969C52.0124 66.8228 51.8522 66.7442 51.6921 66.6641C51.3658 66.4995 51.044 66.323 50.7295 66.1347C50.4166 65.9478 50.1096 65.7476 49.8115 65.5385C49.6662 65.4361 49.5238 65.3323 49.3814 65.2255C49.3799 65.224 49.2998 65.1529 49.288 65.1543C49.3903 65.2329 49.414 65.2507 49.3592 65.2092C49.3354 65.1914 49.3132 65.1721 49.2895 65.1543C49.2123 65.0935 49.1367 65.0312 49.0596 64.969C49.1397 65.27 49.2183 65.5696 49.2984 65.8707C49.4615 65.0476 49.6232 64.2259 49.7863 63.4028C49.8545 63.0573 49.9094 62.7028 50.0147 62.3661C50.0459 62.2668 50.0948 62.1704 50.12 62.071C50.0636 62.2935 50.0651 62.2 50.0992 62.1259C50.117 62.0873 50.1363 62.0473 50.1556 62.0087C50.2476 61.8248 50.3558 61.6468 50.4759 61.4793C50.5293 61.4051 50.6287 61.3502 50.4552 61.503C50.4863 61.4763 50.5101 61.4348 50.5368 61.4036C50.5976 61.3325 50.6628 61.2627 50.7281 61.196C50.7889 61.1352 50.8512 61.0774 50.9149 61.0195C50.9535 60.9854 50.9935 60.9528 51.0336 60.9202C51.1567 60.8163 50.8467 61.0536 51.0514 60.9098C51.2071 60.8 51.3702 60.7021 51.5393 60.6161C51.5705 60.5998 51.6016 60.585 51.6328 60.5701C51.7054 60.536 51.8478 60.5138 51.6031 60.579C51.704 60.5523 51.8018 60.5034 51.9012 60.4708C51.9917 60.4426 52.0851 60.4174 52.1756 60.3907C52.5745 60.2765 52.9735 60.1623 53.3739 60.0481C54.2148 59.8078 55.072 59.5987 55.9026 59.3259C56.0494 59.2769 55.5214 59.3496 55.7735 59.3496H56.1606H57.611C58.4846 59.3496 59.3596 59.3629 60.2331 59.3496C60.4689 59.3466 59.9291 59.2739 60.1011 59.3288C60.2168 59.3659 60.3354 59.3956 60.4526 59.4297C60.9183 59.5631 61.3825 59.6951 61.8482 59.8286C62.6046 60.0452 63.3713 60.2379 64.1188 60.4797C64.2093 60.5093 64.2997 60.5538 64.3917 60.579C64.1485 60.5138 64.2894 60.536 64.362 60.5702C64.3932 60.585 64.4243 60.5998 64.4555 60.6161C64.6423 60.7096 64.8144 60.8223 64.9864 60.9394C65.1436 61.0477 64.8173 60.7971 64.9627 60.9202C65.0012 60.9528 65.0413 60.9854 65.0813 61.0195C65.1451 61.0759 65.2088 61.1352 65.2682 61.196C65.329 61.2568 65.3868 61.3191 65.4432 61.3844C65.4758 61.4214 65.5055 61.4704 65.5425 61.503C65.4506 61.3829 65.4343 61.3606 65.4921 61.4377C65.5129 61.4659 65.5322 61.4926 65.5529 61.5208C65.6612 61.6765 65.7591 61.8382 65.8436 62.0087C65.8584 62.0399 65.8748 62.071 65.8896 62.1022C65.9252 62.1778 65.94 62.3128 65.8792 62.071C65.9059 62.1793 65.9608 62.2846 65.9934 62.3914C66.0438 62.556 66.0794 62.7251 66.1135 62.8941C66.293 63.8047 66.4739 64.7169 66.6534 65.6274C66.6697 65.709 66.686 65.7891 66.7008 65.8707C66.7943 66.3467 67.389 66.6641 67.8413 66.5188C68.3485 66.3541 68.5903 65.8884 68.4894 65.3783L67.9911 62.8511C67.9169 62.4729 67.8547 62.0888 67.7241 61.724C67.3816 60.7659 66.7839 59.9739 65.9667 59.3703C65.151 58.7682 64.141 58.5546 63.1845 58.2817C62.3198 58.0341 61.4581 57.7656 60.5876 57.5402C60.3518 57.4794 60.1026 57.4972 59.8609 57.4972H58.4238C57.5309 57.4972 56.6381 57.4839 55.7453 57.4972C55.4991 57.5002 55.2737 57.5788 55.0394 57.6455C54.5603 57.782 54.0813 57.9199 53.6022 58.0563C53.0965 58.2002 52.5922 58.3455 52.0865 58.4894C51.7944 58.5724 51.4948 58.6466 51.21 58.7533C49.6172 59.3525 48.4352 60.6947 48.103 62.3736C47.922 63.2871 47.7426 64.2007 47.5616 65.1143C47.5438 65.2018 47.5275 65.2908 47.5097 65.3783C47.4489 65.6838 47.486 66.065 47.7485 66.28C49.9494 68.0908 52.5908 69.3455 55.4159 69.786C58.3198 70.2384 61.3258 69.9418 64.0473 68.8087C65.5763 68.1724 66.9719 67.3315 68.2502 66.28C68.6269 65.97 68.5943 65.2849 68.2502 64.969C67.8572 64.6012 67.347 64.6383 66.9451 64.9675L66.9455 64.9675Z" fill="white"/>
<defs>
<filter id="filter0_d_63_5587" x="0" y="0.661621" width="124" height="123" filterUnits="userSpaceOnUse" color-interpolation-filters="sRGB">
<feFlood flood-opacity="0" result="BackgroundImageFix"/>
<feColorMatrix in="SourceAlpha" type="matrix" values="0 0 0 0 0 0 0 0 0 0 0 0 0 0 0 0 0 0 127 0" result="hardAlpha"/>
<feOffset dx="4" dy="8"/>
<feGaussianBlur stdDeviation="12"/>
<feComposite in2="hardAlpha" operator="out"/>
<feColorMatrix type="matrix" values="0 0 0 0 0.0862745 0 0 0 0 0.858824 0 0 0 0 0.780392 0 0 0 0.21 0"/>
<feBlend mode="normal" in2="BackgroundImageFix" result="effect1_dropShadow_63_5587"/>
<feBlend mode="normal" in="SourceGraphic" in2="effect1_dropShadow_63_5587" result="shape"/>
</filter>
<filter id="filter1_d_63_5587" x="5.33228" y="5.332" width="113.336" height="113.336" filterUnits="userSpaceOnUse" color-interpolation-filters="sRGB">
<feFlood flood-opacity="0" result="BackgroundImageFix"/>
<feColorMatrix in="SourceAlpha" type="matrix" values="0 0 0 0 0 0 0 0 0 0 0 0 0 0 0 0 0 0 127 0" result="hardAlpha"/>
<feOffset dx="4" dy="8"/>
<feGaussianBlur stdDeviation="12"/>
<feComposite in2="hardAlpha" operator="out"/>
<feColorMatrix type="matrix" values="0 0 0 0 0.0862745 0 0 0 0 0.858824 0 0 0 0 0.780392 0 0 0 0.21 0"/>
<feBlend mode="normal" in2="BackgroundImageFix" result="effect1_dropShadow_63_5587"/>
<feBlend mode="normal" in="SourceGraphic" in2="effect1_dropShadow_63_5587" result="shape"/>
</filter>
<linearGradient id="paint0_linear_63_5587" x1="58" y1="16.6616" x2="58" y2="91.6616" gradientUnits="userSpaceOnUse">
<stop stop-color="#23CDB0"/>
<stop offset="1" stop-color="#0482AA"/>
</linearGradient>
<linearGradient id="paint1_linear_63_5587" x1="58.0001" y1="21.3401" x2="58.0001" y2="86.6597" gradientUnits="userSpaceOnUse">
<stop stop-color="#23CDB0"/>
<stop offset="1" stop-color="#0482AA"/>
</linearGradient>
<linearGradient id="paint2_linear_63_5587" x1="58.0001" y1="21.3401" x2="58.0001" y2="86.6597" gradientUnits="userSpaceOnUse">
<stop stop-color="#107DC5"/>
<stop offset="1" stop-color="#23CDB0"/>
</linearGradient>
</defs>
</svg>
